PathFileType	4	(X/Y/Z)	D:\Share\Shared_Data\Ergonomics\Sit To Stand Pertubation\S3\Perturbed.trc
DataRate	CameraRate	NumFrames	NumMarkers	Units	OrigDataRate	OrigDataStartFrame	OrigNumFrames	
100	100	15	18	m	100	9439	231
Frame#	Time	R_ASIS			R_Pelvis			V_Sacral			L_Pelvis			L_ASIS			Clavical			R_Acromium			L_Acromium			Sternum			Torso			R_Thigh_Med			R_Thigh_Lat			R_Thigh			R_Shank_Med			R_Shank_Lat			R_Shank			R_Heel			R_Toe			
		X1	Y1	Z1	X2	Y2	Z2	X3	Y3	Z3	X4	Y4	Z4	X5	Y5	Z5	X6	Y6	Z6	X7	Y7	Z7	X8	Y8	Z8	X9	Y9	Z9	X10	Y10	Z10	X11	Y11	Z11	X12	Y12	Z12	X13	Y13	Z13	X14	Y14	Z14	X15	Y15	Z15	X16	Y16	Z16	X17	Y17	Z17	X18	Y18	Z18	

9439	94.38	0.036755939	0.64473895	0.1453511	-0.072829407	0.62503088	0.19836966	-0.18065553	0.61802612	0.010918542	-0.064474915	0.64331097	-0.18923378	0.042442104	0.6446825	-0.13451747	-0.00083953643	1.042785	-0.0057914629	-0.050601227	1.100174	0.16867735	-0.047347458	1.0992419	-0.16568034	0.027630058	0.97039032	0.0021583014	0.0059999318	1.0319922	-0.066769669	0.38717532	0.46510681	0.067197319	0.37333807	0.4473024	0.18495164	0.20480077	0.57721582	0.10930647	0.30698413	0.1072877	0.091797501	0.2929758	0.094607185	0.17380771	0.31708115	0.2724325	0.19540889	0.23285213	0.051112488	0.13022836	0.44960828	0.056304535	0.11399792
9440	94.39	0.036782818	0.64472137	0.14531416	-0.07280481	0.6250614	0.1983819	-0.18068289	0.61804608	0.010950455	-0.064524307	0.64332043	-0.1892245	0.042438477	0.6446673	-0.13456264	-0.00062268347	1.0428259	-0.0058707094	-0.050274136	1.1002515	0.16861467	-0.047210754	1.0992683	-0.16574529	0.02782107	0.97041296	0.0020733738	0.0062032351	1.0320322	-0.066866028	0.38718417	0.46488794	0.067319138	0.37332483	0.44731232	0.18490253	0.20478532	0.57721741	0.10926852	0.30698074	0.1072859	0.091794144	0.2929581	0.09460836	0.17381207	0.31705945	0.27243768	0.19537819	0.23285071	0.051103821	0.13022705	0.44960599	0.056306717	0.11399539
9441	94.4	0.036811592	0.64470111	0.14527478	-0.07277813	0.62509302	0.19839296	-0.1807093	0.6180686	0.010980658	-0.064571114	0.64333063	-0.1892149	0.04243578	0.6446485	-0.13460587	-0.00038681966	1.042866	-0.0059461241	-0.049936607	1.1003307	0.1685551	-0.047041466	1.0992955	-0.16581107	0.028023077	0.97043597	0.0019929775	0.0064301214	1.0320715	-0.066961876	0.38719769	0.46464957	0.067461075	0.37331314	0.4473237	0.18485437	0.20476985	0.57721863	0.10923095	0.30697717	0.10728404	0.091790886	0.29294147	0.094612999	0.17381789	0.317039	0.27244058	0.19535031	0.23284732	0.051091148	0.13022018	0.44960391	0.056308582	0.11399297
9442	94.41	0.036840939	0.64467902	0.1452345	-0.072750366	0.62512384	0.19840108	-0.18073433	0.61809222	0.011007991	-0.064613861	0.64334082	-0.18920496	0.042430664	0.64462781	-0.13464261	-0.00013068089	1.0429042	-0.0060166106	-0.049588711	1.1004081	0.16849788	-0.046841881	1.0993208	-0.1658782	0.028239334	0.9704566	0.0019169531	0.0066824098	1.0321088	-0.067056198	0.38721494	0.46441019	0.067608353	0.37330356	0.44733649	0.18480652	0.20475574	0.57721991	0.10919364	0.30697375	0.10728207	0.091787453	0.29292963	0.09461924	0.17382295	0.31702234	0.27244272	0.19532463	0.23284175	0.051073517	0.13020638	0.44960208	0.056309879	0.11399078
9443	94.42	0.03686927	0.64465576	0.14519489	-0.072722443	0.62515234	0.19840518	-0.18075771	0.61811615	0.011031503	-0.064651321	0.64335077	-0.18919513	0.0424212	0.64460687	-0.13466931	0.0001473276	1.042939	-0.0060810113	-0.049231693	1.1004796	0.1684425	-0.04661377	1.0993411	-0.16594679	0.028474304	0.97047284	0.00184478	0.0069608455	1.0321434	-0.067147728	0.38723422	0.46418817	0.067746628	0.37329645	0.44735049	0.18475865	0.20474385	0.57722113	0.10915653	0.30697061	0.10727996	0.09178363	0.29292499	0.094624924	0.17382507	0.31701077	0.27244559	0.19530031	0.2328335	0.051050209	0.13018462	0.44960052	0.056310505	0.11398901
9444	94.43	0.03689526	0.64463239	0.14515707	-0.072695045	0.62517798	0.19840495	-0.18077928	0.61813947	0.011050711	-0.064682587	0.64336072	-0.18918605	0.042406181	0.6445874	-0.13468327	0.00044895089	1.0429696	-0.0061386704	-0.048866596	1.1005417	0.16838925	-0.046357285	1.0993539	-0.16601604	0.028732805	0.97048315	0.0017756869	0.0072657375	1.0321747	-0.067235085	0.38725357	0.46399954	0.067863266	0.37329166	0.44736514	0.18471086	0.20473448	0.57722253	0.10911981	0.30696799	0.10727772	0.091779343	0.2929281	0.094629349	0.17382336	0.31700455	0.27245026	0.19527676	0.23282199	0.051020733	0.13015434	0.44959946	0.056310608	0.11398779
9445	94.44	0.036918301	0.64460974	0.14512128	-0.072668633	0.62520099	0.19840071	-0.18079913	0.61816193	0.011065756	-0.064707291	0.64337164	-0.18917839	0.042384663	0.64457123	-0.13468222	0.00077596962	1.0429954	-0.0061896348	-0.048492451	1.1005927	0.16833932	-0.046070587	1.0993582	-0.16608421	0.029018536	0.97048676	0.0017090254	0.0075976949	1.0322021	-0.067316711	0.38727112	0.46385593	0.06794912	0.37328882	0.44737946	0.1846637	0.20472755	0.57722412	0.10908386	0.30696597	0.10727543	0.091774635	0.29293799	0.094633301	0.17381824	0.31700299	0.27245715	0.19525362	0.23280743	0.050984661	0.13011536	0.44959915	0.056310577	0.11398714
9446	94.45	0.036938461	0.6445885	0.14508723	-0.072643341	0.62522229	0.19839305	-0.18081758	0.61818365	0.011077247	-0.064725601	0.64338464	-0.18917282	0.042355274	0.64456134	-0.13466428	0.0011300354	1.0430151	-0.006234374	-0.048106121	1.100632	0.16829439	-0.045749691	1.0993536	-0.16614944	0.02933289	0.97048267	0.0016447179	0.0079581327	1.0322249	-0.067391006	0.38728525	0.46376199	0.068000435	0.3732872	0.44739264	0.18461784	0.20472243	0.5772262	0.10904925	0.30696487	0.10727322	0.091769562	0.29295261	0.094638008	0.17381091	0.31700473	0.27246619	0.19523067	0.23279176	0.050942104	0.13006859	0.44959985	0.056310738	0.11398695
9447	94.46	0.036956257	0.64456903	0.14505457	-0.072618919	0.62524316	0.19838272	-0.18083508	0.61820557	0.011085993	-0.064738197	0.64340076	-0.18916972	0.042316139	0.64456091	-0.13462764	0.0015125146	1.0430284	-0.0062733493	-0.047703548	1.1006602	0.16825554	-0.045389297	1.0993412	-0.1662104	0.029674896	0.97046936	0.001583432	0.0083492908	1.032241	-0.067456993	0.38729532	0.4637142	0.068019585	0.37328616	0.44740381	0.18457399	0.20471814	0.57722882	0.10901648	0.30696478	0.10727126	0.091764076	0.29296869	0.094644211	0.1738031	0.31700858	0.27247665	0.19520784	0.23277983	0.05089521	0.13001741	0.44960156	0.056311119	0.11398709
9448	94.47	0.036972462	0.64455151	0.14502327	-0.072594925	0.62526508	0.19837073	-0.18085213	0.61822852	0.011092894	-0.064746277	0.64342059	-0.18916902	0.042265564	0.64457251	-0.13457121	0.0019245377	1.0430359	-0.0063068552	-0.047280926	1.1006786	0.16822282	-0.044984203	1.0993215	-0.16626691	0.030042454	0.9704447	0.0015264869	0.0087733269	1.0322479	-0.067514557	0.38730109	0.46370306	0.0680131	0.37328516	0.4474129	0.18453265	0.20471344	0.57723187	0.10898587	0.3069657	0.1072697	0.091758102	0.29298349	0.094651695	0.17379601	0.31701349	0.2724877	0.19518524	0.23277924	0.050848896	0.12996811	0.44960388	0.056311466	0.11398757
9449	94.48	0.036988064	0.64453577	0.14499374	-0.072571014	0.62528888	0.19835831	-0.18086911	0.61825391	0.011098841	-0.064751366	0.64344391	-0.18917003	0.04220319	0.64459631	-0.13449585	0.0023671529	1.0430374	-0.0063354359	-0.046835194	1.1006892	0.16819478	-0.044530376	1.0992955	-0.16631995	0.030433893	0.97040765	0.0014757823	0.0092307911	1.0322445	-0.067564064	0.38730276	0.46371716	0.067988899	0.37328369	0.4474201	0.18449408	0.20470721	0.57723511	0.10895753	0.30696741	0.10726877	0.091751648	0.29299622	0.094659309	0.17378955	0.31701862	0.2724985	0.19516315	0.23279643	0.050808311	0.12992671	0.44960654	0.056311489	0.11398837
9450	94.49	0.037004189	0.6445213	0.14496652	-0.072547157	0.62531531	0.19834677	-0.18088602	0.61828308	0.01110469	-0.06475531	0.64346991	-0.18917169	0.042131191	0.6446297	-0.13440596	0.0028412085	1.0430331	-0.0063606281	-0.046363953	1.1006953	0.1681684	-0.044025845	1.0992632	-0.16637186	0.030848896	0.97035852	0.001433579	0.0097200737	1.0322334	-0.067605553	0.3873006	0.46374631	0.067954277	0.3732814	0.44742618	0.18445824	0.20469888	0.5772381	0.10893153	0.30696967	0.10726851	0.091745079	0.29300784	0.094665962	0.17378319	0.31702347	0.27250839	0.19514207	0.23283119	0.050774761	0.12989476	0.44960938	0.056311035	0.1139893
9451	94.5	0.037021927	0.6445072	0.14494226	-0.072523613	0.62534436	0.19833725	-0.18090242	0.61831763	0.01111144	-0.064760262	0.64349707	-0.18917249	0.042054569	0.64466669	-0.13430925	0.0033469601	1.0430227	-0.0063848577	-0.045865135	1.1007006	0.16813989	-0.043470837	1.0992256	-0.16642537	0.031288088	0.97029919	0.0014018162	0.01023881	1.0322174	-0.067638756	0.38729517	0.46378244	0.067915123	0.37327829	0.44743173	0.18442513	0.20468826	0.57724042	0.10890791	0.30697205	0.10726884	0.091738777	0.29301868	0.094671585	0.17377707	0.31702783	0.27251678	0.19512273	0.23287648	0.05074556	0.12986913	0.4496123	0.056310097	0.11398993
9452	94.51	0.03704245	0.64449286	0.14492142	-0.072500404	0.62537531	0.19833102	-0.18091771	0.61835846	0.011120287	-0.064768585	0.64352289	-0.18917087	0.041978775	0.64470038	-0.13421443	0.0038841045	1.0430066	-0.0064102111	-0.0453368	1.1007081	0.16810577	-0.042866978	1.0991831	-0.16648323	0.031751659	0.97023151	0.0013814048	0.010785837	1.0321986	-0.067663963	0.38728726	0.46381967	0.067875671	0.37327502	0.44743713	0.18439487	0.20467583	0.57724158	0.10888678	0.3069743	0.10726968	0.091733124	0.29302805	0.094677216	0.17377225	0.31703223	0.27252362	0.19510579	0.23292339	0.05071756	0.1298459	0.44961505	0.056308826	0.11398988
9453	94.52	0.03706683	0.64447772	0.14490468	-0.072476959	0.62540765	0.19832944	-0.18093135	0.6184068	0.011132495	-0.06478289	0.64354504	-0.18916512	0.041906616	0.6447262	-0.13412779	0.0044526515	1.0429851	-0.0064376087	-0.044776981	1.1007209	0.16806375	-0.042216404	1.0991349	-0.16654848	0.03223912	0.97015778	0.0013720399	0.011362015	1.0321768	-0.067682945	0.38727783	0.46385437	0.067838615	0.37327246	0.44744229	0.18436765	0.20466235	0.57724115	0.10886827	0.30697617	0.10727092	0.091728432	0.29303525	0.094684441	0.17376988	0.31703708	0.27252887	0.19509166	0.23296445	0.05068985	0.12982344	0.44961749	0.056307465	0.11398907
